<?xml version="1.0" encoding="utf-8"?>
<!-- Generator: Adobe Illustrator 15.0.0, SVG Export Plug-In . SVG Version: 6.00 Build 0)  -->
<svg version="1.2" baseProfile="tiny" id="Layer_1" xmlns="http://www.w3.org/2000/svg" xmlns:xlink="http://www.w3.org/1999/xlink"
	 x="0px" y="0px" width="100%" viewBox="0 0 208.05 77.536" overflow="inherit" xml:space="preserve">
<path fill="#FFFFFF" d="M19.725,43.797c-3.889,0-7.343-0.762-10.364-2.287v-5.769c1.51,0.641,3.045,1.265,4.606,1.874
	c1.56,0.607,3.194,0.911,4.903,0.911c3.541,0,6.413-1.193,8.618-3.581c2.055-2.232,3.082-4.962,3.082-8.189
	c0-3.138-1.188-5.813-3.565-8.023c-2.377-2.21-5.312-3.315-8.803-3.315c-3.74,0-6.724,1.381-8.953,4.144
	c-2.005,2.454-3.008,5.416-3.008,8.885v29.276H0V27.021c0-4.685,1.703-8.647,5.108-11.886c3.404-3.237,7.707-4.857,12.908-4.857
	c5.249,0,9.694,1.581,13.335,4.741c3.641,3.161,5.461,7.073,5.461,11.737c0,4.575-1.549,8.509-4.644,11.803
	C28.9,42.051,24.751,43.797,19.725,43.797z"/>
<path fill="#FFFFFF" d="M63.541,43.797c-4.729,0-8.469-1.381-11.217-4.145c-2.675-2.652-4.013-6.111-4.013-10.377V10.941h6.241
	v19.428c0,2.145,0.891,4.04,2.674,5.687c1.784,1.647,3.888,2.47,6.314,2.47c2.402,0,4.552-0.823,6.445-2.47
	c1.896-1.647,2.841-3.542,2.841-5.687V10.941h6.242v19.163c0,3.957-1.475,7.228-4.421,9.814C71.701,42.504,68,43.797,63.541,43.797z
	"/>
<path fill="#FFFFFF" d="M99.362,43.134h-6.24V10.941h5.943v4.41c2.105-3.382,5.35-5.073,9.731-5.073h1.82v5.271
	c-3.689,0-6.487,0.945-8.395,2.835c-1.907,1.89-2.86,4.503-2.86,7.841V43.134z"/>
<path fill="#FFFFFF" d="M127.67,6.797h-0.074c-1.065,0-1.981-0.349-2.748-1.044c-0.769-0.697-1.152-1.52-1.152-2.47
	c0-0.884,0.396-1.652,1.188-2.304C125.675,0.326,126.556,0,127.522,0c1.015,0,1.889,0.348,2.618,1.044
	c0.73,0.696,1.096,1.509,1.096,2.437c0,0.929-0.333,1.713-1.002,2.354S128.71,6.797,127.67,6.797z M124.253,43.134V10.941h6.24
	v32.193H124.253z"/>
<path fill="#FFFFFF" d="M164.02,43.134h-17.94l-0.11-5.172c2.077,0,5.199,0.022,9.36,0.067s7.279,0.066,9.36,0.066
	c3.046,0,4.568-1.039,4.568-3.117c0-1.79-2.006-3.282-6.018-4.476c-7.082-2.099-10.809-3.227-11.181-3.382
	c-3.988-1.791-5.98-4.31-5.98-7.559c0-5.703,4.074-8.554,12.22-8.554h15.528v5.306h-16.826c-2.923,0-4.385,1.039-4.385,3.116
	c0,1.547,1.994,2.84,5.98,3.879c6.116,1.636,9.807,2.751,11.07,3.349c3.986,1.879,5.98,4.608,5.98,8.189
	C175.648,40.371,171.772,43.134,164.02,43.134z"/>
<path fill="#FFFFFF" d="M199.841,43.134c-3.491,0-6.202-0.889-8.135-2.669c-1.932-1.779-2.898-4.216-2.898-7.311V2.653h6.167v8.288
	h13.075v5.305h-13.075v18.003c0,2.52,2.551,3.78,7.651,3.78c0.793,0,1.809-0.034,3.047-0.1c1.238-0.066,2.03-0.1,2.377-0.1v5.305
	H199.841z"/>
<line stroke="#FF0000" stroke-width="1.7149" x1="13.383" y1="53.06" x2="207.962" y2="53.06"/>
<g>
	<path fill="#FFFFFF" d="M4.853,73.26c-1.253,0-2.351-0.468-3.293-1.405c-0.943-0.936-1.414-2.026-1.414-3.271
		c0-1.315,0.456-2.438,1.37-3.368c0.913-0.93,2.025-1.395,3.337-1.395h1.712v1.536c-1.448,0-2.521,0.179-3.22,0.535
		c-0.959,0.5-1.438,1.403-1.438,2.712c0,1.238,0.502,2.1,1.507,2.585c0.704,0.344,1.755,0.516,3.151,0.516v1.555H4.853z"/>
	<path fill="#FFFFFF" d="M15.657,73.26v-5.453c0-0.797-0.35-1.449-1.047-1.954c-0.626-0.454-1.354-0.681-2.182-0.681
		c-0.927,0-1.693,0.318-2.3,0.953c-0.607,0.635-0.91,1.413-0.91,2.333c0,0.959,0.293,1.766,0.88,2.42
		c0.607,0.687,1.383,1.03,2.33,1.03c0.914,0,1.715-0.411,2.407-1.234v1.924c-0.953,0.57-1.807,0.855-2.564,0.855
		c-1.357,0-2.485-0.502-3.386-1.507c-0.875-0.965-1.312-2.128-1.312-3.489c0-1.458,0.463-2.627,1.39-3.509
		c0.926-0.881,2.126-1.322,3.601-1.322c1.364,0,2.489,0.375,3.376,1.127c0.933,0.797,1.399,1.86,1.399,3.188v5.317H15.657z"/>
	<path fill="#FFFFFF" d="M20.921,63.822h2.887v1.555h-2.887v7.883h-1.644V62.869c0-0.958,0.271-1.762,0.812-2.411
		c0.581-0.693,1.344-1.04,2.29-1.04h1.664v1.536c-1.363,0-2.211,0.136-2.544,0.408C21.081,61.693,20.889,62.513,20.921,63.822z"/>
	<path fill="#FFFFFF" d="M28.926,73.493c-1.298,0-2.427-0.467-3.386-1.4c-0.959-0.933-1.439-2.044-1.439-3.334
		c0-1.432,0.447-2.637,1.341-3.616c0.926-1.011,2.101-1.516,3.522-1.516c2.049,0,3.592,0.982,4.629,2.945l-6.39,3.518l-0.705-1.312
		l4.815-2.624c-0.554-0.654-1.337-0.982-2.349-0.982c-0.966,0-1.739,0.354-2.319,1.06c-0.548,0.661-0.822,1.484-0.822,2.469
		c0,0.875,0.316,1.628,0.949,2.26s1.389,0.948,2.27,0.948c0.959,0,1.707-0.272,2.241-0.816c0.457-0.473,0.793-1.205,1.008-2.197
		l1.664,0.243c-0.02,1.206-0.564,2.246-1.634,3.121C31.304,73.082,30.172,73.493,28.926,73.493z"/>
	<path fill="#FFFFFF" d="M43.107,69.393c-0.343,0-0.628-0.126-0.853-0.378c-0.226-0.252-0.338-0.549-0.338-0.89
		c0-0.298,0.119-0.565,0.359-0.799c0.239-0.234,0.517-0.352,0.831-0.352c0.344,0,0.637,0.107,0.88,0.32
		c0.243,0.213,0.365,0.49,0.365,0.832c0,0.341-0.123,0.638-0.37,0.89C43.735,69.267,43.443,69.393,43.107,69.393z"/>
	<path fill="#FFFFFF" d="M55.833,73.26c-0.92,0-1.634-0.261-2.143-0.782c-0.509-0.522-0.764-1.236-0.764-2.144v-8.942h1.624v2.43
		h3.445v1.555H54.55v5.278c0,0.739,0.672,1.108,2.016,1.108c0.209,0,0.477-0.01,0.803-0.029c0.326-0.02,0.535-0.029,0.627-0.029
		v1.555H55.833z"/>
	<path fill="#FFFFFF" d="M66.666,73.26v-5.453c0-0.797-0.349-1.449-1.047-1.954c-0.626-0.454-1.354-0.681-2.183-0.681
		c-0.927,0-1.693,0.318-2.3,0.953c-0.606,0.635-0.91,1.413-0.91,2.333c0,0.959,0.294,1.766,0.881,2.42
		c0.606,0.687,1.383,1.03,2.329,1.03c0.913,0,1.716-0.411,2.407-1.234v1.924c-0.952,0.57-1.808,0.855-2.563,0.855
		c-1.357,0-2.485-0.502-3.387-1.507c-0.874-0.965-1.312-2.128-1.312-3.489c0-1.458,0.464-2.627,1.391-3.509
		c0.926-0.881,2.127-1.322,3.602-1.322c1.363,0,2.488,0.375,3.376,1.127c0.933,0.797,1.399,1.86,1.399,3.188v5.317H66.666z"/>
	<path fill="#FFFFFF" d="M75.238,73.454c-1.024,0-1.935-0.224-2.73-0.671v-1.691c0.398,0.188,0.803,0.371,1.214,0.549
		c0.411,0.178,0.842,0.267,1.291,0.267c0.934,0,1.69-0.35,2.271-1.05c0.541-0.654,0.813-1.455,0.813-2.401
		c0-0.92-0.313-1.704-0.94-2.352c-0.626-0.648-1.399-0.972-2.319-0.972c-0.985,0-1.771,0.405-2.357,1.215
		c-0.529,0.72-0.794,1.588-0.794,2.605v8.583h-1.644v-9c0-1.373,0.448-2.535,1.346-3.484c0.896-0.949,2.03-1.424,3.401-1.424
		c1.382,0,2.554,0.463,3.512,1.39c0.959,0.927,1.439,2.073,1.439,3.44c0,1.341-0.408,2.495-1.224,3.46
		C77.655,72.942,76.562,73.454,75.238,73.454z"/>
	<path fill="#FFFFFF" d="M88.958,73.26v-5.453c0-0.797-0.349-1.449-1.047-1.954c-0.626-0.454-1.354-0.681-2.182-0.681
		c-0.927,0-1.693,0.318-2.301,0.953c-0.606,0.635-0.91,1.413-0.91,2.333c0,0.959,0.294,1.766,0.882,2.42
		c0.605,0.687,1.383,1.03,2.329,1.03c0.912,0,1.715-0.411,2.406-1.234v1.924c-0.952,0.57-1.807,0.855-2.563,0.855
		c-1.356,0-2.485-0.502-3.387-1.507c-0.873-0.965-1.311-2.128-1.311-3.489c0-1.458,0.463-2.627,1.39-3.509
		c0.926-0.881,2.127-1.322,3.602-1.322c1.363,0,2.488,0.375,3.376,1.127c0.933,0.797,1.399,1.86,1.399,3.188v5.317H88.958z"/>
	<path fill="#FFFFFF" d="M96.826,73.26h-4.727l-0.029-1.517c0.548,0,1.37,0.007,2.466,0.02c1.097,0.013,1.918,0.02,2.466,0.02
		c0.803,0,1.204-0.304,1.204-0.914c0-0.525-0.528-0.962-1.586-1.312c-1.865-0.615-2.847-0.946-2.945-0.991
		c-1.051-0.525-1.575-1.264-1.575-2.216c0-1.671,1.073-2.507,3.22-2.507h4.091v1.555h-4.434c-0.77,0-1.155,0.304-1.155,0.914
		c0,0.454,0.525,0.833,1.576,1.137c1.611,0.479,2.583,0.807,2.916,0.981c1.05,0.551,1.575,1.352,1.575,2.401
		C99.888,72.45,98.868,73.26,96.826,73.26z"/>
	<path fill="#FFFFFF" d="M108.853,69.393c-0.343,0-0.627-0.126-0.853-0.378c-0.226-0.252-0.338-0.549-0.338-0.89
		c0-0.298,0.119-0.565,0.359-0.799s0.517-0.352,0.831-0.352c0.344,0,0.637,0.107,0.881,0.32c0.242,0.213,0.365,0.49,0.365,0.832
		c0,0.341-0.125,0.638-0.371,0.89C109.482,69.267,109.19,69.393,108.853,69.393z"/>
	<path fill="#FFFFFF" d="M123.058,73.26c-1.254,0-2.351-0.468-3.294-1.405c-0.942-0.936-1.413-2.026-1.413-3.271
		c0-1.315,0.455-2.438,1.369-3.368c0.913-0.93,2.026-1.395,3.338-1.395h1.711v1.536c-1.447,0-2.521,0.179-3.22,0.535
		c-0.958,0.5-1.438,1.403-1.438,2.712c0,1.238,0.502,2.1,1.507,2.585c0.705,0.344,1.755,0.516,3.15,0.516v1.555H123.058z"/>
	<path fill="#FFFFFF" d="M131.09,73.454c-1.48,0-2.72-0.45-3.718-1.351c-1.012-0.927-1.543-2.123-1.596-3.586l0.04-0.039
		c0-1.303,0.49-2.437,1.473-3.402c0.981-0.965,2.128-1.448,3.438-1.448c1.378,0,2.554,0.466,3.528,1.4
		c0.976,0.933,1.464,2.077,1.464,3.431c0,1.303-0.441,2.453-1.322,3.451C133.485,72.939,132.382,73.454,131.09,73.454z
		 M130.768,65.173c-0.9,0-1.662,0.311-2.285,0.933c-0.623,0.622-0.935,1.38-0.935,2.274c0,1.056,0.28,1.899,0.842,2.527
		c0.587,0.667,1.406,1.001,2.456,1.001c2.088,0,3.132-1.202,3.132-3.606c0-0.907-0.306-1.656-0.915-2.246
		C132.453,65.468,131.688,65.173,130.768,65.173z"/>
	<path fill="#FFFFFF" d="M141.983,73.26c-1.253,0-2.351-0.468-3.294-1.405c-0.942-0.936-1.413-2.026-1.413-3.271
		c0-1.315,0.456-2.438,1.37-3.368c0.912-0.93,2.025-1.395,3.337-1.395h1.712v1.536c-1.447,0-2.521,0.179-3.22,0.535
		c-0.958,0.5-1.438,1.403-1.438,2.712c0,1.238,0.503,2.1,1.507,2.585c0.706,0.344,1.756,0.516,3.151,0.516v1.555H141.983z"/>
	<path fill="#FFFFFF" d="M149.39,67.681V67.7c1.763,0.253,2.643,1.105,2.643,2.557v3.003l-1.644-0.02
		c0-0.207,0.015-0.517,0.044-0.928s0.044-0.721,0.044-0.928c0-1.659-0.584-2.488-1.752-2.488h-1.996v4.364h-1.645V59.419h1.645
		v7.931h0.959c0.627,0,1.236-0.457,1.83-1.371c0.392-0.719,0.782-1.438,1.175-2.158h1.849c-0.424,0.758-0.851,1.52-1.281,2.284
		C150.633,67.065,150.01,67.59,149.39,67.681z"/>
	<path fill="#FFFFFF" d="M156.965,73.26c-0.92,0-1.634-0.261-2.143-0.782c-0.509-0.522-0.764-1.236-0.764-2.144v-8.942h1.624v2.43
		h3.445v1.555h-3.445v5.278c0,0.739,0.672,1.108,2.016,1.108c0.209,0,0.477-0.01,0.803-0.029c0.326-0.02,0.535-0.029,0.627-0.029
		v1.555H156.965z"/>
	<path fill="#FFFFFF" d="M167.798,73.26v-5.453c0-0.797-0.349-1.449-1.047-1.954c-0.626-0.454-1.354-0.681-2.183-0.681
		c-0.927,0-1.693,0.318-2.3,0.953c-0.606,0.635-0.91,1.413-0.91,2.333c0,0.959,0.294,1.766,0.881,2.42
		c0.606,0.687,1.383,1.03,2.329,1.03c0.913,0,1.716-0.411,2.407-1.234v1.924c-0.952,0.57-1.808,0.855-2.563,0.855
		c-1.356,0-2.485-0.502-3.387-1.507c-0.874-0.965-1.312-2.128-1.312-3.489c0-1.458,0.464-2.627,1.391-3.509
		c0.926-0.881,2.127-1.322,3.602-1.322c1.363,0,2.488,0.375,3.376,1.127c0.933,0.797,1.399,1.86,1.399,3.188v5.317H167.798z"/>
	<path fill="#FFFFFF" d="M173.123,62.607h-0.021c-0.28,0-0.522-0.102-0.724-0.306c-0.202-0.204-0.304-0.445-0.304-0.725
		c0-0.259,0.104-0.484,0.313-0.675c0.209-0.191,0.44-0.287,0.694-0.287c0.268,0,0.497,0.102,0.69,0.307
		c0.191,0.204,0.288,0.442,0.288,0.714c0,0.272-0.088,0.502-0.265,0.69C173.621,62.513,173.396,62.607,173.123,62.607z
		 M172.221,73.26v-9.438h1.645v9.438H172.221z"/>
	<path fill="#FFFFFF" d="M177.212,73.26V59.419h1.644V73.26H177.212z"/>
	<path fill="#FFFFFF" d="M185.991,73.454c-1.364,0-2.511-0.479-3.44-1.438s-1.395-2.119-1.395-3.48v-9.117h1.644v8.922
		c0,0.979,0.281,1.805,0.842,2.479c0.601,0.726,1.384,1.089,2.35,1.089c0.938,0,1.715-0.337,2.328-1.011
		c0.594-0.648,0.891-1.448,0.891-2.401c0-0.914-0.291-1.691-0.871-2.333c-0.606-0.661-1.369-0.991-2.29-0.991
		c-0.764,0-1.572,0.259-2.427,0.777l-0.02-1.71c0.691-0.408,1.475-0.612,2.349-0.612c1.384,0,2.546,0.437,3.489,1.312
		c0.942,0.875,1.414,1.996,1.414,3.363c0,1.445-0.444,2.657-1.332,3.635C188.609,72.949,187.431,73.454,185.991,73.454z"/>
	<path fill="#FFFFFF" d="M200.072,73.26v-5.453c0-0.797-0.349-1.449-1.047-1.954c-0.626-0.454-1.354-0.681-2.183-0.681
		c-0.927,0-1.692,0.318-2.3,0.953c-0.606,0.635-0.91,1.413-0.91,2.333c0,0.959,0.294,1.766,0.882,2.42
		c0.605,0.687,1.382,1.03,2.328,1.03c0.913,0,1.716-0.411,2.407-1.234v1.924c-0.952,0.57-1.808,0.855-2.563,0.855
		c-1.356,0-2.485-0.502-3.387-1.507c-0.874-0.965-1.312-2.128-1.312-3.489c0-1.458,0.464-2.627,1.391-3.509
		c0.926-0.881,2.127-1.322,3.602-1.322c1.363,0,2.488,0.375,3.376,1.127c0.933,0.797,1.399,1.86,1.399,3.188v5.317H200.072z"/>
	<path fill="#FFFFFF" d="M205.17,73.26h-1.644v-9.438h1.564v1.293c0.556-0.992,1.41-1.487,2.564-1.487h0.479v1.545
		c-0.972,0-1.709,0.277-2.211,0.831c-0.503,0.554-0.754,1.32-0.754,2.299V73.26z"/>
</g>
<g>
	<path fill="#FFFFFF" d="M29.719,62.851l-1.861,0.07l2.975-2.986l2.158-0.082L29.719,62.851z"/>
</g>
</svg>
